<svg width="128" height="128" viewBox="0 0 128 128" fill="none" xmlns="http://www.w3.org/2000/svg">
  <defs>
    <linearGradient id="g" x1="0" y1="0" x2="128" y2="128" gradientUnits="userSpaceOnUse">
      <stop offset="0%" stop-color="#8B5CF6"/>
      <stop offset="50%" stop-color="#EC4899"/>
      <stop offset="100%" stop-color="#06B6D4"/>
    </linearGradient>
    <filter id="blur" x="-20%" y="-20%" width="140%" height="140%">
      <feGaussianBlur in="SourceGraphic" stdDeviation="1.2"/>
    </filter>
  </defs>
  <rect x="8" y="8" width="112" height="112" rx="24" fill="url(#g)" opacity="0.15"/>
  <g filter="url(#blur)">
    <circle cx="40" cy="40" r="10" fill="#8B5CF6" opacity="0.5"/>
    <circle cx="92" cy="36" r="8" fill="#06B6D4" opacity="0.4"/>
    <circle cx="88" cy="88" r="12" fill="#EC4899" opacity="0.35"/>
  </g>
  <path d="M64 22c14 10 24 26 24 40 0 17-12 30-24 44-12-14-24-27-24-44 0-14 10-30 24-40z" fill="url(#g)"/>
  <path d="M64 46c5.5 0 10 4.5 10 10 0 5.6-4.5 10-10 10s-10-4.4-10-10c0-5.5 4.5-10 10-10z" fill="#fff" opacity="0.9"/>
  <path d="M44 92l20-8 20 8-20 14-20-14z" fill="url(#g)"/>
  <text x="64" y="116" text-anchor="middle" font-family="Inter,Arial,sans-serif" font-weight="700" font-size="16" fill="#ffffff" opacity="0.9">LaunchPad</text>
</svg>

